HIERARCHY
ROOT joint_Root
{
	OFFSET 0.0 0.0 0.0
	CHANNELS 6 Xposition Yposition Zposition Zrotation Xrotation Yrotation 
	JOINT Hips
	{
		OFFSET 4.5925 91.4895 -427.239
		CHANNELS 6 Xposition Yposition Zposition Zrotation Xrotation Yrotation 
		JOINT Spine
		{
			OFFSET 15.7357 0.0 0.0
			CHANNELS 6 Xposition Yposition Zposition Zrotation Xrotation Yrotation 
			JOINT Chest
			{
				OFFSET 8.98455 -0.406207 0.0
				CHANNELS 6 Xposition Yposition Zposition Zrotation Xrotation Yrotation 
				JOINT Neck
				{
					OFFSET 16.3773 0.0 0.0
					CHANNELS 6 Xposition Yposition Zposition Zrotation Xrotation Yrotation 
					JOINT Head
					{
						OFFSET 6.45672 0.0 0.0
						CHANNELS 6 Xposition Yposition Zposition Zrotation Xrotation Yrotation 
						End Site
						{
							OFFSET 0.0 0.0 0.0
						}
					}
				}
				JOINT Shoulder_L
				{
					OFFSET 12.9942 -0.242716 4.98039
					CHANNELS 6 Xposition Yposition Zposition Zrotation Xrotation Yrotation 
					JOINT UpperArm_L
					{
						OFFSET 5.34809 0.0 0.0
						CHANNELS 6 Xposition Yposition Zposition Zrotation Xrotation Yrotation 
						JOINT LowerArm_L
						{
							OFFSET 24.3286 1.87007e-05 0.0
							CHANNELS 6 Xposition Yposition Zposition Zrotation Xrotation Yrotation 
							JOINT Hand_L
							{
								OFFSET 22.2916 0.0 0.0
								CHANNELS 6 Xposition Yposition Zposition Zrotation Xrotation Yrotation 
								End Site
								{
									OFFSET 0.0 0.0 0.0
								}
							}
						}
					}
				}
				JOINT Shoulder_R
				{
					OFFSET 12.9945 -0.242716 -4.98039
					CHANNELS 6 Xposition Yposition Zposition Zrotation Xrotation Yrotation 
					JOINT UpperArm_R
					{
						OFFSET -5.34813 0.0 0.0
						CHANNELS 6 Xposition Yposition Zposition Zrotation Xrotation Yrotation 
						JOINT LowerArm_R
						{
							OFFSET -24.3289 0.000322201 0.0
							CHANNELS 6 Xposition Yposition Zposition Zrotation Xrotation Yrotation 
							JOINT Hand_R
							{
								OFFSET -22.2915 -0.000108084 0.0
								CHANNELS 6 Xposition Yposition Zposition Zrotation Xrotation Yrotation 
								End Site
								{
									OFFSET 0.0 0.0 0.0
								}
							}
						}
					}
				}
			}
		}
		JOINT UpperLeg_L
		{
			OFFSET -2.19248 -6.46944 0.0
			CHANNELS 6 Xposition Yposition Zposition Zrotation Xrotation Yrotation 
			JOINT LowerLeg_L
			{
				OFFSET 39.0811 0.0 -1.23785e-05
				CHANNELS 6 Xposition Yposition Zposition Zrotation Xrotation Yrotation 
				JOINT Foot_L
				{
					OFFSET 40.9854 0.0 -1.26872e-05
					CHANNELS 6 Xposition Yposition Zposition Zrotation Xrotation Yrotation 
					JOINT Toes_L
					{
						OFFSET 11.7543 0.0 0.0
						CHANNELS 6 Xposition Yposition Zposition Zrotation Xrotation Yrotation 
						End Site
						{
							OFFSET 0.0 0.0 0.0
						}
					}
				}
			}
		}
		JOINT UpperLeg_R
		{
			OFFSET -2.19251 6.46944 0.0
			CHANNELS 6 Xposition Yposition Zposition Zrotation Xrotation Yrotation 
			JOINT LowerLeg_R
			{
				OFFSET -39.0811 -0.00228153 -0.0401928
				CHANNELS 6 Xposition Yposition Zposition Zrotation Xrotation Yrotation 
				JOINT Foot_R
				{
					OFFSET -40.9854 0.0 0.0
					CHANNELS 6 Xposition Yposition Zposition Zrotation Xrotation Yrotation 
					JOINT Toes_R
					{
						OFFSET -11.7543 0.0 0.0
						CHANNELS 6 Xposition Yposition Zposition Zrotation Xrotation Yrotation 
						End Site
						{
							OFFSET 0.0 0.0 0.0
						}
					}
				}
			}
		}
	}
}
MOTION
Frames:	8
Frame Time:	0.0333333
0.000000 0.000000 0.000000 0.000000 0.000000 -0.000000 -0.425786 84.807900 -0.830170 89.553700 -5.122200 13.472400 15.735700 0.000005 -0.000001 88.355700 81.272500 -88.867500 8.984550 -0.406207 -0.000000 9.680010 -0.506407 -0.979951 16.377300 -0.000001 -0.000001 -2.060260 -1.185050 1.031470 6.456720 -0.000001 -0.000000 -5.811120 -0.302625 3.042170 12.994200 -0.242716 4.980390 -91.403600 4.327530 -72.008500 5.348090 -0.000007 -0.000001 -59.583100 22.822900 -18.196700 24.328600 0.000019 0.000005 10.883600 25.730200 -23.886600 22.291600 -0.000001 0.000005 -3.729480 5.418990 -3.547710 12.994500 -0.242716 -4.980390 88.324100 8.997460 -79.402400 -5.348130 -0.000001 -0.000004 -57.994900 26.371600 -14.287300 -24.328900 0.000322 -0.000009 0.319237 1.127750 -16.023200 -22.291500 -0.000108 -0.000004 -3.503600 5.361640 -1.619800 -2.192480 -6.469440 -0.000000 -173.931000 -11.932400 -8.153350 39.081100 -0.000007 -0.000012 -0.469877 0.338078 54.265900 40.985400 -0.000006 -0.000013 -0.307610 2.208090 -82.188500 11.754300 -0.000000 0.000003 -0.000329 -0.002808 -16.681800 -2.192510 6.469440 -0.000001 175.696000 11.794700 172.271000 -39.081100 -0.002282 -0.040193 0.065465 -0.044472 54.451700 -40.985400 0.000008 0.000006 7.074150 5.088250 -83.157800 -11.754300 -0.000006 -0.000006 -0.354401 -0.435923 -16.955800
0.000000 0.000000 0.000000 0.000000 0.000000 -0.000000 -0.508770 86.966700 0.203095 89.861900 -4.213200 12.827500 15.735700 0.000005 -0.000001 88.642200 82.827100 -89.279000 8.984550 -0.406207 -0.000000 6.574300 -0.332264 -1.253050 16.377300 -0.000001 -0.000001 1.153010 -0.938316 0.924859 6.456720 -0.000001 -0.000000 -3.659370 0.018631 2.875380 12.994200 -0.242716 4.980390 -90.799900 2.361660 -71.279500 5.348090 -0.000007 -0.000001 -55.140000 7.318870 -22.672100 24.328600 0.000019 0.000005 9.226010 24.653600 -21.275800 22.291600 -0.000001 0.000005 -1.472720 5.341900 -1.163520 12.994500 -0.242716 -4.980390 88.534800 7.047440 -78.220100 -5.348130 -0.000001 -0.000004 -53.705400 10.529000 -17.257800 -24.328900 0.000322 -0.000009 0.717023 5.121870 -8.014210 -22.291500 -0.000108 -0.000004 -8.132780 5.204260 2.596790 -2.192480 -6.469440 -0.000000 -174.659000 -10.763000 -4.460090 39.081100 -0.000007 -0.000012 -0.402711 0.380414 46.631800 40.985400 -0.000006 -0.000013 -0.657865 1.922030 -79.030400 11.754300 -0.000000 0.000003 -0.000291 -0.002535 -16.672100 -2.192510 6.469440 -0.000001 175.003000 12.950800 176.021000 -39.081100 -0.002282 -0.040193 0.052986 -0.045915 47.283700 -40.985400 0.000008 0.000006 6.782970 6.036620 -79.868700 -11.754300 -0.000006 -0.000006 -0.462754 -0.569447 -17.368400
0.000000 0.000000 0.000000 0.000000 0.000000 -0.000000 -0.493476 88.944800 0.815418 89.846800 -3.690960 10.123600 15.735700 0.000005 -0.000001 88.102700 85.158100 -88.717400 8.984550 -0.406207 -0.000000 1.911240 -0.289024 -1.223360 16.377300 -0.000001 -0.000001 4.744740 -1.075190 0.947334 6.456720 -0.000001 -0.000000 -1.282140 0.167591 2.755110 12.994200 -0.242716 4.980390 -90.126500 0.365407 -70.901600 5.348090 -0.000007 -0.000001 -48.587400 -7.917920 -28.759100 24.328600 0.000019 0.000005 10.404300 23.993100 -24.303600 22.291600 -0.000001 0.000005 1.382310 5.275510 0.734808 12.994500 -0.242716 -4.980390 88.905800 4.649700 -76.738000 -5.348130 -0.000001 -0.000004 -48.163600 -8.076810 -23.436300 -24.328900 0.000322 -0.000009 0.802965 8.223210 -5.604370 -22.291500 -0.000108 -0.000004 -4.884540 5.045410 6.301910 -2.192480 -6.469440 -0.000000 -175.301000 -10.559000 -2.989350 39.081100 -0.000007 -0.000012 -0.304378 0.378865 38.778800 40.985400 -0.000006 -0.000013 -0.717721 2.023830 -75.438800 11.754300 -0.000000 0.000003 -0.000195 -0.001814 -16.646000 -2.192510 6.469440 -0.000001 175.244000 14.192500 177.326000 -39.081100 -0.002282 -0.040193 0.038863 -0.042546 39.907600 -40.985400 0.000008 0.000006 6.356960 7.164680 -75.882100 -11.754300 -0.000006 -0.000006 -0.439209 -0.543527 -18.024900
0.000000 0.000000 0.000000 0.000000 0.000000 -0.000000 -0.422954 90.110900 1.178060 89.694800 -3.613160 7.612830 15.735700 0.000005 -0.000001 83.852100 86.860900 -84.326900 8.984550 -0.406207 -0.000000 -1.526320 -0.633738 -0.957758 16.377300 -0.000001 -0.000001 6.100580 -1.198170 0.923015 6.456720 -0.000001 -0.000000 0.143978 0.359697 2.543600 12.994200 -0.242716 4.980390 -89.425200 -1.693120 -71.237300 5.348090 -0.000007 -0.000001 -39.835200 -22.032200 -34.157700 24.328600 0.000019 0.000005 11.642400 19.009200 -32.335100 22.291600 -0.000001 0.000005 6.924160 5.312410 -0.193500 12.994500 -0.242716 -4.980390 89.321300 2.765990 -76.211500 -5.348130 -0.000001 -0.000004 -42.122400 -23.343200 -31.751200 -24.328900 0.000322 -0.000009 0.272805 1.226100 -13.755800 -22.291500 -0.000108 -0.000004 3.936820 5.191260 3.214640 -2.192480 -6.469440 -0.000000 -175.415000 -11.715100 -2.605980 39.081100 -0.000007 -0.000012 -0.237615 0.360025 33.425100 40.985400 -0.000006 -0.000013 -0.456799 3.085500 -72.956200 11.754300 -0.000000 0.000003 -0.000142 -0.001385 -16.630300 -2.192510 6.469440 -0.000001 175.622000 15.458100 177.713000 -39.081100 -0.002282 -0.040193 0.029281 -0.037759 34.539100 -40.985400 0.000008 0.000006 6.284330 8.569540 -73.477600 -11.754300 -0.000006 -0.000006 -0.297555 -0.378513 -18.140200
0.000000 0.000000 0.000000 0.000000 0.000000 -0.000000 -0.379014 90.535000 1.367670 89.655100 -3.685400 6.032730 15.735700 0.000005 -0.000001 72.269700 87.720300 -72.595300 8.984550 -0.406207 -0.000000 -3.427480 -1.355990 -0.692066 16.377300 -0.000001 -0.000001 5.678030 -1.067000 1.040270 6.456720 -0.000001 -0.000000 0.019620 0.573869 2.285540 12.994200 -0.242716 4.980390 -88.561600 -4.278260 -71.398700 5.348090 -0.000007 -0.000001 -27.953600 -34.870300 -35.010000 24.328600 0.000019 0.000005 13.074600 13.480800 -44.886800 22.291600 -0.000001 0.000005 18.185200 5.397020 -2.824010 12.994500 -0.242716 -4.980390 89.988400 0.048598 -76.560900 -5.348130 -0.000001 -0.000004 -32.512600 -31.587100 -36.515600 -24.328900 0.000322 -0.000009 -6.192000 -9.810910 -32.514400 -22.291500 -0.000108 -0.000004 16.707500 5.576930 -9.361590 -2.192480 -6.469440 -0.000000 -175.372000 -13.352000 -2.925920 39.081100 -0.000007 -0.000012 -0.203889 0.336259 31.230600 40.985400 -0.000006 -0.000013 -0.103922 4.553420 -71.961300 11.754300 -0.000000 0.000003 -0.000117 -0.001177 -16.622600 -2.192510 6.469440 -0.000001 175.737000 16.571300 177.792000 -39.081100 -0.002282 -0.040193 0.021975 -0.030269 31.674900 -40.985400 0.000008 0.000006 6.326460 9.866210 -73.105700 -11.754300 -0.000006 -0.000006 -0.002304 -0.032463 -17.893200
0.000000 0.000000 0.000000 0.000000 0.000000 -0.000000 -0.237532 90.600500 1.405320 89.617300 -4.097590 5.359060 15.735700 0.000005 -0.000001 69.630000 87.839900 -69.684600 8.984550 -0.406207 -0.000000 -3.717250 -1.497460 -0.157811 16.377300 -0.000001 -0.000001 3.672340 -0.894932 0.756628 6.456720 -0.000001 -0.000000 -0.661287 0.363624 2.163260 12.994200 -0.242716 4.980390 -87.516400 -6.810500 -69.915300 5.348090 -0.000007 -0.000001 -20.580700 -48.556600 -37.462400 24.328600 0.000019 0.000005 17.136700 11.389800 -57.360500 22.291600 -0.000001 0.000005 29.194700 5.403950 -3.035560 12.994500 -0.242716 -4.980390 90.794400 -3.237850 -76.224200 -5.348130 -0.000001 -0.000004 -24.576000 -43.420700 -40.682200 -24.328900 0.000322 -0.000009 -0.760076 -0.595146 -52.837000 -22.291500 -0.000108 -0.000004 27.126100 5.637450 -13.810600 -2.192480 -6.469440 -0.000000 -175.664000 -13.260600 -3.416170 39.081100 -0.000007 -0.000012 -0.201235 0.336166 30.905900 40.985400 -0.000006 -0.000013 -0.170895 3.994010 -71.854400 11.754300 -0.000000 0.000003 -0.000113 -0.001144 -16.621300 -2.192510 6.469440 -0.000001 175.922000 16.197300 177.598000 -39.081100 -0.002282 -0.040193 0.021048 -0.029853 30.731400 -40.985400 0.000008 0.000006 6.283160 9.913560 -73.352800 -11.754300 -0.000006 -0.000006 -0.002310 -0.032533 -17.896000
0.000000 0.000000 0.000000 0.000000 0.000000 -0.000000 -0.007348 90.674900 1.383350 89.426500 -4.778690 4.773170 15.735700 0.000005 -0.000001 76.442100 88.099600 -76.228200 8.984550 -0.406207 -0.000000 -4.069590 -0.912493 0.395601 16.377300 -0.000001 -0.000001 2.343990 -0.992830 0.863113 6.456720 -0.000001 -0.000000 -0.544738 0.266321 1.415700 12.994200 -0.242716 4.980390 -85.863000 -9.226880 -65.726900 5.348090 -0.000007 -0.000001 -27.848900 -58.989300 -52.669100 24.328600 0.000019 0.000005 20.043200 10.542900 -63.364300 22.291600 -0.000001 0.000005 33.550500 5.447430 -4.546520 12.994500 -0.242716 -4.980390 92.477700 -7.890680 -72.520300 -5.348130 -0.000001 -0.000004 -27.649500 -52.935900 -52.820700 -24.328900 0.000322 -0.000009 2.923590 1.404210 -64.367000 -22.291500 -0.000108 -0.000004 30.439000 5.664140 -16.571300 -2.192480 -6.469440 -0.000000 -176.026000 -12.432900 -3.880490 39.081100 -0.000007 -0.000012 -0.202757 0.342311 30.639300 40.985400 -0.000006 -0.000013 -0.420416 2.471200 -71.780500 11.754300 -0.000000 0.000003 -0.000130 -0.001283 -16.626500 -2.192510 6.469440 -0.000001 176.362000 14.976700 176.906000 -39.081100 -0.002282 -0.040193 0.022842 -0.033181 30.495500 -40.985400 0.000008 0.000006 6.038660 9.444110 -72.834000 -11.754300 -0.000006 -0.000006 -0.002051 -0.029355 -17.766800
0.000000 0.000000 0.000000 0.000000 0.000000 -0.000000 0.060693 90.856100 1.528900 89.478000 -5.110040 3.825250 15.735700 0.000005 -0.000001 85.479600 88.600200 -85.268400 8.984550 -0.406207 -0.000000 -4.974590 -0.243903 0.412181 16.377300 -0.000001 -0.000001 2.950580 -1.433510 1.417460 6.456720 -0.000001 -0.000000 -0.882611 -0.003736 1.158510 12.994200 -0.242716 4.980390 -84.640700 -10.612500 -63.006800 5.348090 -0.000007 -0.000001 -33.670200 -63.901400 -67.244300 24.328600 0.000019 0.000005 20.128000 11.557400 -61.339600 22.291600 -0.000001 0.000005 34.724400 5.425790 -3.795370 12.994500 -0.242716 -4.980390 93.954600 -10.543100 -69.304000 -5.348130 -0.000001 -0.000004 -31.378700 -58.103000 -65.798200 -24.328900 0.000322 -0.000009 3.496030 1.756220 -63.399200 -22.291500 -0.000108 -0.000004 30.486000 5.665060 -16.663800 -2.192480 -6.469440 -0.000000 -176.250000 -13.018900 -4.172190 39.081100 -0.000007 -0.000012 -0.195949 0.345726 29.543800 40.985400 -0.000006 -0.000013 -0.360778 2.669100 -71.340500 11.754300 -0.000000 0.000003 -0.000135 -0.001328 -16.628200 -2.192510 6.469440 -0.000001 176.506000 14.849500 176.189000 -39.081100 -0.002282 -0.040193 0.022591 -0.033542 29.902100 -40.985400 0.000008 0.000006 5.976290 9.686140 -72.114900 -11.754300 -0.000006 -0.000006 -0.002034 -0.029143 -17.758100
